<svg width="88" height="18" viewBox="0 0 88 18" fill="none" xmlns="http://www.w3.org/2000/svg">
<path d="M2.5 10.5L7.5 8.5M7.5 8.5L9.5 2.5M7.5 8.5L11.5 15.5L22.5 14.5" stroke="#3168FF" stroke-linecap="round"/>
<circle cx="2.5" cy="10.5" r="2.5" fill="#5A5A5A"/>
<circle cx="9.5" cy="2.5" r="2.5" fill="#5A5A5A"/>
<circle cx="11.5" cy="15.5" r="2.5" fill="#5A5A5A"/>
<circle cx="22.5" cy="14.5" r="1.5" fill="#5A5A5A"/>
<circle cx="7.5" cy="8.5" r="1.5" fill="#5A5A5A"/>
<path d="M14.052 12C13.788 12 13.544 11.936 13.32 11.808C13.104 11.68 12.932 11.508 12.804 11.292C12.676 11.068 12.612 10.824 12.612 10.56V10.224H13.584V10.56C13.584 10.688 13.628 10.8 13.716 10.896C13.812 10.984 13.924 11.028 14.052 11.028H19.812C19.94 11.028 20.048 10.984 20.136 10.896C20.232 10.8 20.28 10.688 20.28 10.56V8.628C20.28 8.5 20.232 8.392 20.136 8.304C20.048 8.216 19.94 8.172 19.812 8.172H14.052C13.788 8.172 13.544 8.108 13.32 7.98C13.104 7.844 12.932 7.668 12.804 7.452C12.676 7.236 12.612 6.996 12.612 6.732V4.8C12.612 4.536 12.676 4.296 12.804 4.08C12.932 3.856 13.104 3.68 13.32 3.552C13.544 3.424 13.788 3.36 14.052 3.36H19.812C20.076 3.36 20.316 3.424 20.532 3.552C20.756 3.68 20.932 3.856 21.06 4.08C21.188 4.296 21.252 4.536 21.252 4.8V5.136H20.28V4.8C20.28 4.672 20.232 4.564 20.136 4.476C20.048 4.38 19.94 4.332 19.812 4.332H14.052C13.924 4.332 13.812 4.38 13.716 4.476C13.628 4.564 13.584 4.672 13.584 4.8V6.732C13.584 6.86 13.628 6.968 13.716 7.056C13.812 7.144 13.924 7.188 14.052 7.188H19.812C20.076 7.188 20.316 7.256 20.532 7.392C20.756 7.52 20.932 7.692 21.06 7.908C21.188 8.124 21.252 8.364 21.252 8.628V10.56C21.252 10.824 21.188 11.068 21.06 11.292C20.932 11.508 20.756 11.68 20.532 11.808C20.316 11.936 20.076 12 19.812 12H14.052ZM23.9312 12C23.6672 12 23.4232 11.936 23.1992 11.808C22.9832 11.672 22.8072 11.496 22.6712 11.28C22.5432 11.056 22.4792 10.812 22.4792 10.548V6.492C22.4792 6.228 22.5432 5.988 22.6712 5.772C22.8072 5.548 22.9832 5.372 23.1992 5.244C23.4232 5.108 23.6672 5.04 23.9312 5.04H28.1072C28.3792 5.04 28.6232 5.108 28.8392 5.244C29.0632 5.372 29.2392 5.548 29.3672 5.772C29.5032 5.988 29.5712 6.228 29.5712 6.492V9.012H23.4632V10.548C23.4632 10.676 23.5072 10.788 23.5952 10.884C23.6912 10.972 23.8032 11.016 23.9312 11.016H29.5712V12H23.9312ZM23.4632 8.028H28.5752V6.492C28.5752 6.364 28.5272 6.256 28.4312 6.168C28.3432 6.072 28.2352 6.024 28.1072 6.024H23.9312C23.8032 6.024 23.6912 6.072 23.5952 6.168C23.5072 6.256 23.4632 6.364 23.4632 6.492V8.028ZM30.8238 12V5.04H36.4638C36.7278 5.04 36.9678 5.108 37.1838 5.244C37.4078 5.372 37.5838 5.548 37.7118 5.772C37.8478 5.988 37.9158 6.228 37.9158 6.492V12H36.9318V6.492C36.9318 6.364 36.8838 6.256 36.7878 6.168C36.6998 6.072 36.5918 6.024 36.4638 6.024H32.2878C32.1598 6.024 32.0478 6.072 31.9518 6.168C31.8558 6.256 31.8078 6.364 31.8078 6.492V12H30.8238ZM40.5593 12C40.2953 12 40.0513 11.936 39.8273 11.808C39.6113 11.672 39.4353 11.496 39.2993 11.28C39.1713 11.056 39.1073 10.812 39.1073 10.548V10.452H40.0913V10.548C40.0913 10.676 40.1353 10.788 40.2233 10.884C40.3193 10.972 40.4313 11.016 40.5593 11.016H44.7353C44.8633 11.016 44.9713 10.972 45.0593 10.884C45.1553 10.788 45.2033 10.676 45.2033 10.548V9.48C45.2033 9.352 45.1553 9.244 45.0593 9.156C44.9713 9.06 44.8633 9.012 44.7353 9.012H40.5593C40.2953 9.012 40.0513 8.948 39.8273 8.82C39.6113 8.684 39.4353 8.508 39.2993 8.292C39.1713 8.068 39.1073 7.824 39.1073 7.56V6.492C39.1073 6.228 39.1713 5.988 39.2993 5.772C39.4353 5.548 39.6113 5.372 39.8273 5.244C40.0513 5.108 40.2953 5.04 40.5593 5.04H44.7353C45.0073 5.04 45.2513 5.108 45.4673 5.244C45.6913 5.372 45.8673 5.548 45.9953 5.772C46.1313 5.988 46.1993 6.228 46.1993 6.492V6.588H45.2033V6.492C45.2033 6.364 45.1553 6.256 45.0593 6.168C44.9713 6.072 44.8633 6.024 44.7353 6.024H40.5593C40.4313 6.024 40.3193 6.072 40.2233 6.168C40.1353 6.256 40.0913 6.364 40.0913 6.492V7.56C40.0913 7.688 40.1353 7.8 40.2233 7.896C40.3193 7.984 40.4313 8.028 40.5593 8.028H44.7353C45.0073 8.028 45.2513 8.096 45.4673 8.232C45.6913 8.36 45.8673 8.536 45.9953 8.76C46.1313 8.976 46.1993 9.216 46.1993 9.48V10.548C46.1993 10.812 46.1313 11.056 45.9953 11.28C45.8673 11.496 45.6913 11.672 45.4673 11.808C45.2513 11.936 45.0073 12 44.7353 12H40.5593ZM48.8218 12C48.5578 12 48.3138 11.936 48.0898 11.808C47.8738 11.672 47.6978 11.496 47.5618 11.28C47.4338 11.056 47.3698 10.812 47.3698 10.548V6.492C47.3698 6.228 47.4338 5.988 47.5618 5.772C47.6978 5.548 47.8738 5.372 48.0898 5.244C48.3138 5.108 48.5578 5.04 48.8218 5.04H52.9978C53.2698 5.04 53.5138 5.108 53.7298 5.244C53.9538 5.372 54.1298 5.548 54.2578 5.772C54.3938 5.988 54.4618 6.228 54.4618 6.492V10.548C54.4618 10.812 54.3938 11.056 54.2578 11.28C54.1298 11.496 53.9538 11.672 53.7298 11.808C53.5138 11.936 53.2698 12 52.9978 12H48.8218ZM48.8218 11.016H52.9978C53.1258 11.016 53.2338 10.972 53.3218 10.884C53.4178 10.788 53.4658 10.676 53.4658 10.548V6.492C53.4658 6.364 53.4178 6.256 53.3218 6.168C53.2338 6.072 53.1258 6.024 52.9978 6.024H48.8218C48.6938 6.024 48.5818 6.072 48.4858 6.168C48.3978 6.256 48.3538 6.364 48.3538 6.492V10.548C48.3538 10.676 48.3978 10.788 48.4858 10.884C48.5818 10.972 48.6938 11.016 48.8218 11.016ZM55.5732 12V6.492C55.5732 6.228 55.6372 5.988 55.7652 5.772C55.9012 5.548 56.0772 5.372 56.2932 5.244C56.5172 5.108 56.7612 5.04 57.0252 5.04H60.9372V6.024H57.0252C56.8972 6.024 56.7852 6.072 56.6892 6.168C56.6012 6.256 56.5572 6.364 56.5572 6.492V12H55.5732ZM65.0314 12V3.36H66.3634L72.6994 10.896V3.36H73.6714V12H72.3394L66.0034 4.464V12H65.0314ZM76.4078 12C76.1438 12 75.8998 11.936 75.6758 11.808C75.4598 11.672 75.2838 11.496 75.1478 11.28C75.0198 11.056 74.9558 10.812 74.9558 10.548V6.492C74.9558 6.228 75.0198 5.988 75.1478 5.772C75.2838 5.548 75.4598 5.372 75.6758 5.244C75.8998 5.108 76.1438 5.04 76.4078 5.04H80.5838C80.8558 5.04 81.0998 5.108 81.3158 5.244C81.5398 5.372 81.7158 5.548 81.8438 5.772C81.9798 5.988 82.0478 6.228 82.0478 6.492V9.012H75.9398V10.548C75.9398 10.676 75.9838 10.788 76.0718 10.884C76.1678 10.972 76.2798 11.016 76.4078 11.016H82.0478V12H76.4078ZM75.9398 8.028H81.0518V6.492C81.0518 6.364 81.0038 6.256 80.9078 6.168C80.8198 6.072 80.7118 6.024 80.5838 6.024H76.4078C76.2798 6.024 76.1678 6.072 76.0718 6.168C75.9838 6.256 75.9398 6.364 75.9398 6.492V8.028ZM84.7403 12C84.4683 12 84.2203 11.936 83.9963 11.808C83.7803 11.672 83.6083 11.496 83.4803 11.28C83.3523 11.056 83.2883 10.812 83.2883 10.548V2.76H84.2723V5.04H87.2843V6.024H84.2723V10.548C84.2723 10.676 84.3163 10.788 84.4043 10.884C84.5003 10.972 84.6123 11.016 84.7403 11.016H87.2843V12H84.7403Z" fill="black"/>
</svg>
